<?xml version="1.0" standalone="no"?>
<svg viewBox="0 0 200 200" xmlns="http://www.w3.org/2000/svg">
  <path fill="#8A3FFC" d="M33.6,-58.3C38.8,-49,35.1,-31.6,35.8,-19.5C36.4,-7.3,41.6,-0.3,47.6,11.9C53.7,24,60.7,41.3,54.2,44.5C47.6,47.6,27.6,36.5,12.7,38.8C-2.1,41,-11.6,56.6,-22.8,61C-34,65.3,-46.8,58.5,-54.2,48C-61.6,37.6,-63.7,23.5,-60.9,11.6C-58.2,-0.3,-50.6,-10,-46.9,-22.8C-43.2,-35.6,-43.2,-51.5,-36.1,-59.9C-28.9,-68.4,-14.4,-69.4,-0.1,-69.2C14.2,-69,28.4,-67.6,33.6,-58.3Z" transform="translate(100 100)" />
</svg>
