<?xml version="1.0" ?><svg style="enable-background:new 0 0 48 48;" version="1.1" viewBox="0 0 48 48" xml:space="preserve" xmlns="http://www.w3.org/2000/svg" xmlns:xlink="http://www.w3.org/1999/xlink"><g id="Icons"><path d="M16.3872,34.6633l-6.71-10.09c-0.86-1.42-0.41-3.26,1.01-4.13l14.15-8.6c1.42-0.86,3.26-0.41,4.13,1   l3.68,6.06l1.18,2.11" style="fill:#D8D8D8;"/><path d="M35.7572,36.5934h-16.569c-1.6568,0-3-1.3432-3-3V24.01c0-1.6568,1.3432-3,3-3h16.569   c1.65681,0,3,1.3432,3,3v9.5834C38.7572,35.2502,37.41401,36.5934,35.7572,36.5934z" style="fill:#F9F9F9;"/><path d="M20.38901,32.7276c0.01049,0.0559,0.02169,0.1117,0.03709,0.1907   c0.0205-0.0487,0.033-0.0771,0.0444-0.1058c0.3138-0.7936,0.62751-1.5872,0.9411-2.3809c0.0129-0.0328,0.022-0.0613,0.0703-0.0608   c0.31011,0.0027,0.62011,0.0018,0.93011,0.0024c0.00919,0,0.01839,0.0034,0.03539,0.0069   c-0.0739,0.1786-0.1456,0.3533-0.2185,0.5276c-0.4384,1.0474-0.8776,2.0944-1.3143,3.1425   c-0.0232,0.0555-0.0514,0.0732-0.1104,0.0725c-0.2875-0.0031-0.575-0.0037-0.8625,0.0002   c-0.0649,0.0009-0.0898-0.0192-0.1058-0.0814c-0.2485-0.9717-0.5017-1.9422-0.7483-2.9143" style="fill:#0052CC;"/><path d="M19.0876,31.1272c-0.0433-0.171-0.13-0.2894-0.2921-0.3619   c-0.2886-0.129-0.5878-0.2216-0.8969-0.2846c0-0.01,0-0.02,0-0.03c0.0079-0.023,0.0159-0.046,0.026-0.0754   c0.0239-0.0012,0.0508-0.0037,0.0778-0.0037c0.5175-0.0002,1.0351-0.0006,1.55261,0.0003   c0.24459,0.0004,0.41339,0.136,0.45969,0.3771c0.1266,0.6592,0.2497,1.3191,0.37431,1.9786" style="fill:#FFC601;"/><path d="M26.4261,34.111c0.099-0.2361,0.1971-0.4701,0.295-0.7041   c0.3805-0.909,0.76191-1.8175,1.1406-2.7272c0.0871-0.2093,0.236-0.3105,0.4641-0.3062c0.2597,0.005,0.5196,0.0012,0.7866,0.0012   c0.2598,1.2454,0.5188,2.4865,0.7795,3.7361c-0.0354,0.0028-0.0617,0.0066-0.088,0.0067   c-0.2375,0.0004-0.4751-0.0017-0.7126,0.0016c-0.066,0.0009-0.096-0.0149-0.1071-0.0866   c-0.02219-0.1427-0.0587-0.2831-0.0866-0.4249c-0.0079-0.0403-0.0272-0.0524-0.0664-0.0523c-0.38,0.0012-0.7601,0.0017-1.1401,0   c-0.0453-0.0002-0.0598,0.0215-0.0726,0.0577c-0.0533,0.1505-0.1066,0.301-0.16449,0.4497   c-0.00921,0.0235-0.04161,0.054-0.06361,0.0543c-0.31239,0.0031-0.625,0.0016-0.9375,0.0009   C26.4459,34.1179,26.4389,34.1144,26.4261,34.111z M28.7252,32.7906c-0.0971-0.4663-0.1926-0.9253-0.2881-1.3844   c-0.00609-0.0005-0.0122-0.0009-0.0183-0.0014c-0.1662,0.4595-0.3325,0.9189-0.5016,1.3858   C28.1878,32.7906,28.4486,32.7906,28.7252,32.7906z" style="fill:#0052CC;"/><rect height="3.1331" style="fill:#383838;" width="22.5693" x="16.1879" y="24.4404"/><path d="M23.7054,33.9801c0.059-0.275,0.1162-0.5424,0.1753-0.818   c0.058,0.0261,0.1092,0.0503,0.16131,0.0724c0.33069,0.1407,0.67349,0.2052,1.03029,0.1387   c0.0923-0.0172,0.1864-0.0608,0.26371-0.1151c0.15459-0.1085,0.16729-0.3047,0.02969-0.4335   c-0.0773-0.0724-0.17069-0.1293-0.2621-0.1846c-0.194-0.1173-0.4022-0.2139-0.5855-0.3456   c-0.618-0.4444-0.4535-1.1466-0.1107-1.5037c0.2533-0.2639,0.5727-0.3939,0.9247-0.4541c0.4324-0.074,0.8554-0.028,1.2687,0.1158   c0.0137,0.0048,0.0267,0.0119,0.0444,0.0199c-0.05619,0.2624-0.1119,0.5226-0.1684,0.7862   c-0.2705-0.1192-0.5481-0.184-0.8401-0.1756c-0.1283,0.0037-0.2533,0.0248-0.36669,0.0907   c-0.19,0.1104-0.21531,0.3007-0.04711,0.4405c0.095,0.0789,0.2084,0.1361,0.31511,0.2004   c0.17079,0.103,0.35029,0.1933,0.51329,0.3074c0.4618,0.3232,0.5061,0.821,0.3113,1.2654   c-0.1571,0.3583-0.4563,0.559-0.8161,0.6777c-0.3471,0.1144-0.704,0.134-1.0657,0.0962c-0.2391-0.025-0.4747-0.0648-0.7006-0.1502   C23.7571,34.0023,23.7346,33.9922,23.7054,33.9801z" style="fill:#0052CC;"/><path d="M22.8705,30.3769c0.3257,0,0.64251,0,0.9648,0c-0.05029,0.2391-0.099,0.4733-0.149,0.7072   c-0.2086,0.9759-0.4171,1.9519-0.6269,2.9275c-0.0279,0.1299,0.002,0.1078-0.1365,0.1085   c-0.2575,0.0012-0.515,0.0004-0.7726,0.0004c-0.0242,0-0.0485,0-0.0805,0C22.3378,32.8676,22.6037,31.6245,22.8705,30.3769z" style="fill:#0052CC;"/><path d="   M35.7572,36.5934h-16.569c-1.6568,0-3-1.3432-3-3V24.01c0-1.6568,1.3432-3,3-3h16.569c1.65681,0,3,1.3432,3,3v9.5834   C38.7572,35.2502,37.41401,36.5934,35.7572,36.5934z" style="fill:none;stroke:#303030;stroke-width:0.5;stroke-linecap:round;stroke-linejoin:round;stroke-miterlimit:10;"/><line style="fill:none;stroke:#303030;stroke-width:0.5;stroke-linecap:round;stroke-linejoin:round;stroke-miterlimit:10;" x1="38.7591" x2="16.1879" y1="24.4404" y2="24.4404"/><line style="fill:none;stroke:#303030;stroke-width:0.5;stroke-linecap:round;stroke-linejoin:round;stroke-miterlimit:10;" x1="38.7591" x2="16.1879" y1="27.5735" y2="27.5735"/><line style="fill:none;stroke:#303030;stroke-width:0.5;stroke-linecap:round;stroke-linejoin:round;stroke-miterlimit:10;" x1="17.1372" x2="17.1272" y1="35.7833" y2="35.7733"/><path d="   M16.3872,34.6633l-6.71-10.09c-0.86-1.42-0.41-3.26,1.01-4.13l14.15-8.6c1.42-0.86,3.26-0.41,4.13,1l4.86,8.17" style="fill:none;stroke:#303030;stroke-width:0.5;stroke-linecap:round;stroke-linejoin:round;stroke-miterlimit:10;"/><path d="   M11.5127,25.096c0,0-1.9506-2.1279-0.14769-3.5182l5.77669-3.5273" style="fill:none;stroke:#303030;stroke-width:0.5;stroke-linecap:round;stroke-linejoin:round;stroke-miterlimit:10;"/><line style="fill:none;stroke:#303030;stroke-width:0.5;stroke-linecap:round;stroke-linejoin:round;stroke-miterlimit:10;" x1="18.4377" x2="19.0404" y1="17.309" y2="16.8798"/><line style="fill:none;stroke:#303030;stroke-width:0.5;stroke-linecap:round;stroke-linejoin:round;stroke-miterlimit:10;" x1="32.2411" x2="30.6115" y1="21.01" y2="18.3804"/></g></svg>