<svg id="Layer_1" data-name="Layer 1" xmlns="http://www.w3.org/2000/svg" viewBox="0 0 968.11 592.57"><title>roxyon-logo</title><path d="M743.73,497.29q-13.56-17.32-27.1-34.66c-2.55-1.84-4.91-3.82-5.61-7.11a75.25,75.25,0,0,0-8.42-10.88c-4.14-2.2-5.83-6.33-7.93-10.12l0,0a25.89,25.89,0,0,1-3.12-4l-29.2-38.12a186.53,186.53,0,0,0-13,16.86c-.58,2.94-2.72,4.64-5,6.27L597.22,476q-12.57,16.1-25.09,32.22c-1,1.29-1.82,2.73-2.72,4.1a3.65,3.65,0,0,1-2.93,3.29c-1.25.5-1.39,1.82-2.05,2.76a5.44,5.44,0,0,1-3,4.2c-10.49,13.29-21,26.55-31.45,39.9-5.22,6.66-10.23,13.49-15.33,20.24-1.18,1.19-1.21,3.33-3.17,3.87-1,.18-1.06.89-1,1.68a1.39,1.39,0,0,1-1.58.59c-13.82,5.24-28.2,2.57-42.3,2.67-49.92.34-99.85.13-149.77.14a46.86,46.86,0,0,0-6.49.17,2.71,2.71,0,0,1-2.67-.19Q288.79,559.35,270,527.05q-43.68-75.46-87.31-151a50.1,50.1,0,0,0-3.17-4.41c-2-1.23-2.62-3.16-2.79-5.33Q162,340.6,147.2,314.88q-8.79-15.3-17.62-30.55c1.51-1.32,2.87-.81,4.1-.8,31.14.11,62.29,0,93.42.57,12.8.25,25.19-.6,37.08-5.46,27-11.05,50.26-38.77,52.66-71.19,3.26-44-30.42-78.83-65.62-86.39-3.17-.67-4.48-1.84-4.86-5-.74-5.91-1.7-11.81-2.76-17.67-.58-3.22,1.41-2.75,3.21-2.5,16.53,2.31,32.09,7.37,45.84,17,21.73,15.3,38.41,34.71,44.61,61,10.39,44.21-1.77,81.45-36.87,110.72-19.31,16.11-41.76,23.55-66.78,23.4-18.82-.11-37.64-.35-56.45-.54H171c3.53,6.24,6.64,11.85,9.85,17.4q54.33,93.9,108.69,187.78,15.11,26.13,30.18,52.26a5.24,5.24,0,0,0,5.13,3.05q36.75-.14,73.48,0c2.62,0,4.37.08,2.36-3.4q-24.41-42.33-48.6-84.78c-.07-.12-.27-.18-.41-.27-4.57-4.44-6.83-10.19-9.1-15.94a231.79,231.79,0,0,0-12.67-22.14c-5.13-5.06-7.94-11.43-10.24-18.09-9.26-16.32-18.42-32.71-27.87-48.92-1.93-3.31-1.68-4.49,2-5.8,21-7.54,40.28-18.36,56.72-33.55,30.39-28.09,51.4-61.58,58.3-103.08a183.39,183.39,0,0,0-2.22-72.64,29.32,29.32,0,0,0-1-2.81c-2.78-2.91-2.61-6.64-2.88-10.26a.49.49,0,0,0-.2-.74c-1-1.54-2-3.07-1.88-5-3.93-14.08-11.48-26.36-19.49-38.33a152.62,152.62,0,0,0-18.47-22.69,18.43,18.43,0,0,1-8.12-7.75C342.15,59.31,327.69,49.66,312,41.82c-19.25-9.62-39.74-14.94-61.12-16.94C245.6,24.39,240.28,24,235,24q-108.22-.09-216.46.06c-4.06,0-6.29-1.16-8.08-4.82C7.39,13.06,3.75,7.16,0,.5H7.79Q121,.5,234.25.46c38.37-.07,74,9.31,106.45,30,33.4,21.23,58.55,49.85,75.8,85.4,15,31,20.17,63.91,18.53,98a196,196,0,0,1-17.55,71.66c-.77,3-1.05,6.25-4.08,8.13a267.17,267.17,0,0,1-27,39.18A199.52,199.52,0,0,1,341,372.48c-1.52,1-3,2-4.47,3.07a18.19,18.19,0,0,1-6.83,4.64c-1.89.7-4.72,1.21-4.14,4.48l.72,1.11c2.7,1.44,3.65,4.22,4.85,6.69,1.5,3.09,3,6.19,4.38,9.34Q352,431,368.57,460.26,386.06,491,403.7,521.59c2.74,4.78,2.75,4.79,6.11.41,1-1.31,1.93-2.68,2.89-4a25.59,25.59,0,0,1,8.81-11.35c.34-.37.67-.75,1-1.12.75-1.47,1.36-3,2.93-3.87,25.48-32.26,51-64.45,76.33-96.85,3.47-4.44,6.72-7,12.66-6.27,7,.84,14,.76,22,1.12l-33.19,42.9c.11,1.83-1.18,2.52-2.55,3.14Q477.5,475,454.37,504.24q-23.43,29.76-46.74,59.6c-.89,1.14-1.67,2.35-2.57,3.6,2.08,1,3.92.58,5.69.59,26.47,0,52.94,0,79.41.1,3.49,0,5.92-.82,7.87-3.81,2.35-3.59,5.1-6.91,7.67-10.35,3.12-5.76,6.52-11.3,11.9-15.3q24.55-31.35,49.1-62.7,15.79-20.21,31.48-40.5c.91-1.16,1.64-2.46,2.45-3.69,1-2.58,2.18-4.94,4.85-6.16,9.43-12,19-23.79,28.21-35.95,4.47-5.9,9.94-10.62,15.33-15.53,2.06-1.88,4.36-3.6,5.68-6.18a8.87,8.87,0,0,1,5-5.26l5.16-5.71,5.77,6.65a15.65,15.65,0,0,1,6.94,9.1q3.54,4.45,7.1,8.89c1.68.76,2.13,2.48,3,3.88l.05.07c2.76,1.16,4.09,3.43,4.83,6.17l31.94,40.95a26.19,26.19,0,0,1,8.95,11.3c7.32,9.58,14.57,19.21,22,28.72,10.68,13.69,21.47,27.28,32.22,40.91,3.26,1.38,4.77,4.15,5.83,7.28,8.75,12.72,19.44,24,28,36.84,5.52,8.3,11.93,11,21.76,10.56,20.62-.83,41.3-.25,62-.27,1.82,0,3.64-.19,5.46-.3,2-1.87,4-1.56,6.16-.5-1.7-2.7-4-5.27-5.19-8.56-11.37-14.71-22.69-29.47-34.11-44.14q-56.51-72.54-113.07-145-25.27-32.42-50.6-64.82A13,13,0,0,1,713.7,288c9.31-12.13,18.75-24.14,28.12-36.22.7-.91,1.26-1.93,1.88-2.9a13.55,13.55,0,0,1,6.62-8.32.6.6,0,0,0,.36-.71,4.17,4.17,0,0,1,2.75-3.29q27.48-35.06,54.94-70.1c13.86-17.77,27.59-35.63,41.38-53.45a14.51,14.51,0,0,1,6.66-8.48l.09-.08a7.59,7.59,0,0,1,3.78-4.86c9.86-12.27,19.3-24.85,29-37.24Q902.89,45,916.69,27.66c.71-.89,1.33-1.87,1.91-2.69C918,23.37,916.81,24,916,24c-27.14,0-54.29,0-81.43-.05-2.83,0-5,.47-6.87,2.94C816.37,41.6,804.9,56.15,793.53,70.77a40.09,40.09,0,0,0-2.34,3.76c.11,1.86-1.2,2.54-2.62,3.13l-59.15,75.66c-.55,2.37-1.54,4.4-4,5.24q-26.16,33.33-52.31,66.67c-5.83,7.44-5.45,6.94-13.28,1.69-19-12.7-31.47-31.22-45.11-48.75L519.43,55.73a8.6,8.6,0,0,0-1.07-1c-3.28-2-4.86-5.27-6.61-8.44-5.12-6.73-10.26-13.44-15.35-20.19A4.79,4.79,0,0,0,492.21,24q-43.44.09-86.9.1c-.1,0-.2.23-.73.9,8.64,10.81,17.39,21.74,26.14,32.67a22.07,22.07,0,0,1,7.85,10q10.9,14.94,22.83,29.07a9.16,9.16,0,0,1,5,6.23c6.1,9.26,13.46,17.55,20.25,26.27,11.1,14.26,22.41,28.36,33.64,42.53a12.36,12.36,0,0,1,3.15,4.13l2,3.3c-4,.48-7.49-.85-11-1.74-6.18-1.57-12.39-2.55-18.73-1.66-2.57.36-3.94-.8-5.38-2.64-6.76-8.59-13.63-17.11-20.46-25.65-5.49-6.08-11.67-11.62-15.2-19.24-10.3-14.25-21.43-27.85-32.41-41.55-1.68-.95-3.41-1.86-3.39-4.18Q403.78,63,388.61,43.46c-1-1.29-2.13-2.5-3.2-3.74a3.44,3.44,0,0,1-1.87-1.93l-2.19-3.09c-3.08-1.53-4.68-4.19-5.64-7.34-3.86-6-8.86-11.15-13.37-16.66-2.07-.52-1.94-2.59-2.8-4L355.77,1.5c.84-1.76,2.37-.95,3.53-.95,47.63,0,95.26,0,142.89-.17,4.18,0,6.29,1.82,8.51,4.7q26,33.75,52.18,67.37a9.24,9.24,0,0,0,1.5,1.27,11.74,11.74,0,0,1,3.1,4.06l0,0c4.37,4.19,9,8.22,11,14.22q21.3,27.57,42.62,55.14c7.43,9.57,15,19.06,22.46,28.58,2,.5,2,2.67,3.09,3.91l0,0c2.73,1.23,4,3.56,4.83,6.28,2.95,3.93,5.92,7.84,8.82,11.8,1.22,1.66,2.2,2.26,3.64.14,1.82-2.7,3.87-5.24,5.82-7.85a21.51,21.51,0,0,1,7.94-10.29c6.29-7.4,12.32-15,17.94-22.95,3.48-5.41,6.25-11.38,11.85-15.14L737,103.79a7.4,7.4,0,0,1,4.58-6.13c15.46-18.4,29.7-37.77,44.6-56.61,10.27-13,20.31-26.16,30.45-39.25,1.17-2.48,3.44-1.6,5.29-1.6Q892.55.14,963.17.2c1.55,0,3.68-.86,4.53,1,.93,2.05-.9,3.29-2.31,4.46-2.48,3.07-3.53,7.38-7.68,9.05-.88.87-2,1.58-2.15,3-.72,2.2-1.55,4.32-4.16,4.94-1.67.74-2,2.47-3,3.81a17.92,17.92,0,0,1-7.89,10.26L892.43,98.31c-.87,2.12-1.44,4.47-4,5.26Q868.55,128.79,848.71,154,794.44,223.46,740.2,292.94c-1.49,1.91-2.61,3.28-.56,5.86,14.48,18.18,28.76,36.52,43.11,54.81a4.48,4.48,0,0,1,2.66,3.41c8,10.35,15.88,20.77,24,31,2,2.55,3.28,5.74,6.07,7.68,2.19.36,2.31,2.38,3.11,3.86,8.62,11.62,17.48,23.06,26.74,34.19,1.51,1.62,3.83,2.59,4.08,5.2q10.1,13.19,20.21,26.36c.9,1.17,1.93,2.25,2.9,3.37.92.4,1.74.9,1.74,2.08a4.63,4.63,0,0,0,2.28,2.91c5,3,7.12,8.34,10,13l66.21,84.95c.59.71,1.53,1.13,1.75,2.13l6,7.93a10.52,10.52,0,0,1,5.94,7.1l0,0c.57,1.25,3.43,2.41.15,3.82-1.82-.1-3.64-.27-5.46-.27-45.79,0-91.59-.06-137.38.08a10.45,10.45,0,0,1-9.15-4.41q-25.77-33.3-51.68-66.49c-.89-1.16-1.58-2.61-3.23-3l.05,0c-.41-.63-.82-1.26-1.22-1.89-3.27-2.89-6.4-5.89-7.74-10.23l.07.06C748.39,503.48,744.36,501.69,743.73,497.29Z"/></svg>