<svg id="Layer_1" data-name="Layer 1" xmlns="http://www.w3.org/2000/svg" viewBox="0 0 286.4 153.33"><title>BEA Cloud Cloud</title><path d="M59.14,67.07a57.31,57.31,0,0,0-41.75,9.64c-6.79,4.81-13.1,11.59-15.94,21,0,0-9.56,30.29,20.39,48.65.84.51,7.53,4.85,18.7,6,.56,0,1.13.07,1.69.08l144.75,1s-25.91-1.17-47.66-23.31c-.47-.49-.91-1-1.39-1.49-5.05-4.92-25-43.49-60.38-56.9a95.72,95.72,0,0,0-18.41-4.56"/><path d="M47.46,58.12S55.81,11,107.86,1.53s71.92,27.82,71.92,27.82S153.6,47.79,147.73,71.63c.36.55,13.67-31.65,44.85-39.14,32.78-7.86,57,11.1,62.62,44.11.68-3,48.71,19.3,24.28,61.36,0,0-7,14-27.21,14.86-19.06.78-47.58.41-53.86.34-.68,0-40.85-.07-64-36.72-26.75-42.3-50.41-55-86.92-58.32"/></svg>