<svg fill="none" height="72" viewBox="0 0 72 72" width="72" xmlns="http://www.w3.org/2000/svg">
    <defs>
        <linearGradient id="strokeGradient" x1="0%" y1="0%" x2="100%" y2="100%">
            <stop offset="0%" style="stop-color:purple" />
            <stop offset="50%" style="stop-color:blue" />
            <stop offset="100%" style="stop-color:grey" />

        </linearGradient>
    </defs>
    <circle cx="37" cy="47" r="18" stroke="url(#strokeGradient)" stroke-width="2" fill="none" />
    <path d="m28.2324 31.9546-11-19.0526" stroke="url(#strokeGradient)" stroke-width="2" />
    <path d="m31.7228 8-12.9904 7.5 4.5 7.7942 6.0622-3.5.384 2.6651 14.7224-8.5-4.8481-2.3971.3481-5.39714-7.7942 4.50004z" stroke="url(#strokeGradient)" stroke-width="2" />
    <ellipse cx="36.9999" cy="46.9999" rx="10" ry="18" transform="matrix(-.8660254 .5 -.5 -.8660254 92.542703 69.203057)" stroke="url(#strokeGradient)" stroke-width="2" />
    <circle cx="16.732" cy="12.036" r="2" fill="url(#strokeGradient)" transform="matrix(.8660254 -.5 .5 .8660254 -3.776337 9.978518)" />
    <path d="m58.0311 16.2673c.1611-.4354.7767-.4354.9378 0l1.2069 3.2615c.0506.1368.1586.2448.2954.2954l3.2615 1.2069c.4354.1611.4354.7767 0 .9378l-3.2615 1.2069c-.1368.0506-.2448.1586-.2954.2954l-1.2069 3.2615c-.1611.4354-.7767.4354-.9378 0l-1.2069-3.2615c-.0506-.1368-.1586-.2448-.2954-.2954l-3.2615-1.2069c-.4354-.1611-.4354-.7767 0-.9378l3.2615-1.2069c.1368-.0506.2448-.1586.2954-.2954z" fill="url(#strokeGradient)" stroke="url(#strokeGradient)" stroke-width="2" />
    <path d="m10 30v6" stroke="url(#strokeGradient)" stroke-linecap="round" stroke-width="2" />
    <path d="m13 33h-6" stroke="url(#strokeGradient)" stroke-linecap="round" stroke-width="2" />
</svg>
